<svg version="1.2" xmlns="http://www.w3.org/2000/svg" viewBox="0 0 512 512" width="512" height="512"><style>.a{fill:#3f3f3f}</style><path class="a" d="m0 256c0-67.9 27-133 75-181 48-48 113.1-75 181-75 67.9 0 133 27 181 75 48 48 75 113.1 75 181 0 67.9-27 133-75 181-48 48-113.1 75-181 75-67.9 0-133-27-181-75-48-48-75-113.1-75-181zm160 0c0 25.5 10.1 49.9 28.1 67.9 18 18 42.4 28.1 67.9 28.1 25.5 0 49.9-10.1 67.9-28.1 18-18 28.1-42.4 28.1-67.9 0-25.5-10.1-49.9-28.1-67.9-18-18-42.4-28.1-67.9-28.1-25.5 0-49.9 10.1-67.9 28.1-18 18-28.1 42.4-28.1 67.9zm96 32c-8.5 0-16.6-3.4-22.6-9.4-6-6-9.4-14.1-9.4-22.6 0-8.5 3.4-16.6 9.4-22.6 6-6 14.1-9.4 22.6-9.4 8.5 0 16.6 3.4 22.6 9.4 6 6 9.4 14.1 9.4 22.6 0 8.5-3.4 16.6-9.4 22.6-6 6-14.1 9.4-22.6 9.4zm-160-48c0-35 17.5-71.1 45.2-98.8 27.7-27.7 63.8-45.2 98.8-45.2 8.8 0 16-7.2 16-16 0-8.8-7.2-16-16-16-45.4 0-89.2 22.3-121.5 54.5-32.3 32.2-54.5 76.1-54.5 121.5 0 8.8 7.2 16 16 16 8.8 0 16-7.2 16-16z"/></svg>